<?xml version="1.0" encoding="iso-8859-1"?>
<!-- Generator: Adobe Illustrator 25.1.0, SVG Export Plug-In . SVG Version: 6.00 Build 0)  -->
<svg version="1.1" id="Layer_1" xmlns="http://www.w3.org/2000/svg" xmlns:xlink="http://www.w3.org/1999/xlink" x="0px" y="0px"
	 width="642.5px" height="549.48px" viewBox="0 0 642.5 549.48" enable-background="new 0 0 642.5 549.48" xml:space="preserve">
<path d="M636.073,377.696c-11.136-20.675-33.35-30.645-50.427-33.083c-14.498-2.068-26.951,0.922-34.139,8.219
	c-9.854,9.999-10.872,29.041-2.268,42.447c2.68,4.173,6.205,7.697,10.475,10.478c3.406,2.221,7.542,2.646,11.339,1.17
	c3.809-1.474,6.683-4.701,7.693-8.631c1.337-5.156-0.833-10.698-5.398-13.79c-1.192-0.802-2.155-1.768-2.866-2.867
	c-2.88-4.492-1.738-10.33-1.024-11.053c0.447-0.393,4.464-2.149,12.618-0.979c10.475,1.497,25.083,7.649,31.772,20.062
	c9.277,17.226-2.17,38.686-9.517,47.626c-12.528,15.257-31.61,18.395-44.239,20.474c-19.38,3.186-34.751-0.48-48.301-3.716
	c-1.033-0.247-2.181-0.54-3.376-0.854l-0.841-0.225c-2.799-0.756-5.685-1.616-8.578-2.558l-0.824-0.271
	c-3.498-1.157-7.075-2.463-10.631-3.878l-0.737-0.296c-4.044-1.629-8.145-3.445-12.183-5.397l-0.815-0.393
	c-2.283-1.117-4.392-2.193-6.443-3.285c-1.706-2.38-3.548-4.621-5.48-6.659l-0.473-0.483c-0.803-0.834-1.642-1.643-2.622-2.54
	c-0.212-0.197-0.424-0.395-0.644-0.586c-1.192-1.052-2.222-1.9-3.243-2.669c-1.45-1.095-2.994-2.142-4.586-3.11
	c-1.178-0.716-2.483-1.427-4.107-2.238l-0.264-0.144c-0.125-0.071-0.252-0.144-0.383-0.204c-2.927-1.427-6.109-2.64-9.474-3.61
	c0.911-1.987,1.801-4.064,2.651-6.184l0.177-0.461c0.795-2.007,1.578-4.136,2.326-6.329l0.429-1.278
	c0.664-2.003,1.297-4.073,1.883-6.148l0.249-0.86c1.314-4.788,2.396-9.723,3.214-14.666l0.145-0.921
	c0.339-2.147,0.641-4.361,0.893-6.582l0.125-1.082c0.513-4.882,0.792-9.793,0.827-14.611c1.685,0.033,3.522,0.026,5.494-0.032
	l1.224-0.045c0.76-0.029,1.529-0.067,2.324-0.113c0.545-0.03,1.096-0.064,1.662-0.103c0.687-0.048,1.398-0.109,2.115-0.17
	c2.843-0.242,5.781-0.582,8.731-1.009l1.14-0.167c1.117-0.17,2.26-0.357,3.432-0.56l0.792-0.142
	c14.167-2.518,29.301-7.066,44.985-13.522c1.07,0.342,1.929,0.586,2.738,0.777c1.349,0.342,2.547,0.583,3.667,0.737
	c4.389,0.608,8.85,0.477,13.277-0.383c2.695-0.524,5.288-1.286,7.71-2.27c6.306,5.23,15.133,6.454,22.632,3.092
	c10.64-4.773,15.542-17.152,11.113-28.011c10.495-5.053,15.133-17.621,10.344-28.314c-3.04-6.778-9.433-11.536-16.798-12.552
	c0.075-3.2-0.557-6.315-1.88-9.272c-2.364-5.269-6.634-9.303-12.029-11.358c-5.404-2.054-11.278-1.884-16.537,0.477
	c-1.268,0.567-2.492,1.265-3.643,2.08c-2.419-4.927-6.547-8.695-11.702-10.659c-5.404-2.054-11.272-1.888-16.537,0.477
	c-5.259,2.357-9.291,6.63-11.348,12.031c-2.06,5.401-1.894,11.272,0.464,16.531c0.853,1.9,1.973,3.664,3.342,5.253
	c-0.722,0.774-1.427,1.584-2.1,2.416c-0.673,0.841-1.326,1.736-1.99,2.733l-0.249,0.383c-0.557,0.854-1.085,1.719-1.575,2.599
	c-0.983,0.6-2.109,1.276-3.324,1.988l-0.844,0.497c-0.571,0.334-1.184,0.682-1.796,1.033l-1.25,0.706
	c-0.653,0.37-1.314,0.738-2.01,1.123l-0.838,0.454c-1.424,0.777-2.936,1.582-4.525,2.409l-1.343,0.696
	c-0.879,0.453-1.775,0.906-2.698,1.365l-1.059,0.522c-2.12,1.043-4.331,2.099-6.724,3.195c-1.155,0.528-2.344,1.056-3.545,1.582
	l-0.972,0.422c-4.018,1.739-8.067,3.363-12.044,4.83l-0.734,0.273c-1.375,0.503-2.77,0.998-4.189,1.481l-0.772,0.26
	c-2.84,0.959-5.639,1.842-8.38,2.641c-0.395-1.289-0.803-2.57-1.227-3.845c-0.186-0.566-0.389-1.124-0.589-1.684l-0.482-1.36
	c-0.168-0.476-0.334-0.953-0.508-1.427c6.724-3.716,13.251-7.858,19.406-12.32l0.16-0.115c1.433-1.043,2.846-2.109,4.241-3.186
	l0.94-0.731c1.343-1.052,2.674-2.113,3.983-3.198l0.412-0.351c2.384-1.987,4.833-4.15,7.281-6.43l1.253-1.159
	c0.946-0.898,1.865-1.812,2.785-2.727c0.685-0.68,1.369-1.362,2.036-2.051c0.821-0.84,1.633-1.685,2.431-2.54
	c0.812-0.869,1.604-1.749,2.396-2.631l0.476-0.526c0.502-0.554,1.001-1.11,1.494-1.674c1.363-1.577,2.698-3.173,4-4.795
	c0.276-0.345,0.545-0.696,0.815-1.047l0.531-0.683c0.94-1.202,1.868-2.413,2.77-3.638c0.479-0.648,0.949-1.302,1.418-1.958
	c0.891-1.244,1.758-2.5,2.611-3.767l0.31-0.457c0.293-0.432,0.586-0.866,0.873-1.304c1.334-2.036,2.486-3.868,3.516-5.594
	c0.043-0.071,1.827-3.052,1.868-3.123c6.953-12.273,12.134-25.293,15.406-38.7c0.015-0.062,0.728-3.288,0.745-3.366
	c1.624-7.388,2.683-14.747,3.147-21.891c3.8,0.486,7.214,0.722,10.417,0.722c2.735,0,5.52-0.136,8.276-0.403
	c22.292-2.171,42.406-12.892,56.64-30.191c14.228-17.299,20.868-39.104,18.701-61.399c-2.173-22.295-12.894-42.411-30.191-56.639
	C573.8,11.497,552,4.857,529.696,7.023c-22.292,2.171-42.406,12.892-56.64,30.191c-1.685,2.051-3.33,4.266-4.894,6.591
	c-10.942-8.997-23.049-16.795-36.007-23.189l-0.821-0.409c-0.397-0.2-0.795-0.402-1.198-0.595C403.345,6.782,373.038,0,342.49,0
	c-31.186,0-62.065,7.065-89.3,20.43c-0.403,0.199-0.798,0.403-1.195,0.608l-0.815,0.419c-12.369,6.25-23.931,13.77-34.38,22.362
	c-17.28-25.712-46.972-39.796-77.766-36.796C93.01,11.502,59.214,52.588,63.69,98.611c0.131,1.331,0.293,2.653,0.484,3.96
	c0.067,0.483,0.151,0.959,0.235,1.436l0.209,1.23c0.067,0.406,0.133,0.811,0.212,1.213c0.183,0.956,0.4,1.9,0.618,2.846l0.206,0.938
	c0.264,1.091,0.557,2.17,0.864,3.239l0.125,0.47c0.342,1.173,0.711,2.335,1.146,3.623c1.175,3.44,2.59,6.833,4.206,10.087
	c-21.608,39.295-7.397,98.154-3.585,111.994c-0.893-0.012-1.778-0.017-2.657-0.017c-30.525,0-50.676,7.011-59.918,20.858
	c-11.681,17.5-3.4,41.086,3.846,57.304c7.255,16.236,6.669,28.31,6.08,32.747c-0.049,0.379-0.136,0.804-0.223,1.242
	c-0.342,1.71-0.731,3.648,0.525,4.438c1.685,1.056,3.977-2.234,4.638-3.269c5.352-8.321,5.88-20.851,6.387-32.97
	c0.641-15.274,1.244-29.702,10.562-35.06c13.973-8.037,33.35-1.3,40.611,1.756c-5.311,3.967-8.723,9.082-10.144,15.222
	c-3.258,14.06,3.611,33.423,20.999,59.194c21.524,31.904,16.839,42.551,16.624,42.998c-0.679,1.427-0.522,2.63,0.429,3.298
	c1.236,0.872,2.387-0.045,2.857-0.422c14.837-11.863,19.693-30.001,13.674-51.074c-1.204-4.219-2.138-8.466-2.782-12.639
	c0.455,0.062,0.943,0.113,1.471,0.154c2.245,0.161,4.479-0.035,6.637-0.566l0.203-0.045c0.113-0.022,0.223-0.046,0.339-0.077
	c0.421-0.115,0.833-0.257,1.244-0.4l0.194-0.067c0.424-0.148,0.844-0.299,1.259-0.473c0.386-0.161,0.766-0.338,1.149-0.524
	c0.519-0.252,1.021-0.534,1.52-0.83l0.241-0.141c0.206-0.12,0.412-0.241,0.615-0.374c0.714-0.47,1.337-0.925,1.894-1.384
	c2.425,0.983,5.018,1.746,7.713,2.27c0.995,0.191,1.981,0.334,2.825,0.419l0.307,0.107c0.162,0.057,0.325,0.115,0.502,0.168
	c3.269,0.912,6.24,0.698,8.696-0.219l0.374-0.035c0.191-0.016,0.383-0.032,0.571-0.058c1.12-0.154,2.318-0.395,3.655-0.734
	c1.009-0.239,1.975-0.532,2.75-0.779c15.679,6.453,30.812,11.001,44.982,13.52l0.798,0.142c1.169,0.203,2.312,0.39,3.429,0.56
	l1.14,0.167c2.95,0.428,5.889,0.767,8.731,1.009c0.714,0.061,1.427,0.122,2.115,0.17c0.563,0.039,1.117,0.073,1.659,0.103
	c0.798,0.046,1.566,0.084,2.326,0.113l1.227,0.045c1.975,0.059,3.817,0.064,5.511,0.03c-0.038,1.81-0.035,3.751,0.006,6.035
	l0.038,1.697c0.078,2.635,0.186,4.811,0.339,6.849c0.148,1.988,0.339,3.961,0.566,5.923c0.058,0.518,0.131,1.031,0.203,1.546
	l0.183,1.369c0.125,0.959,0.249,1.919,0.397,2.87c0.133,0.847,0.281,1.685,0.432,2.524l0.165,0.928
	c0.128,0.73,0.255,1.461,0.397,2.187c0.229,1.169,0.482,2.331,0.74,3.487l0.122,0.551c0.107,0.483,0.215,0.967,0.328,1.45
	c0.307,1.278,0.629,2.547,0.966,3.815l0.409,1.511c0.386,1.375,0.789,2.741,1.213,4.096l0.336,1.057
	c0.47,1.468,0.96,2.925,1.476,4.357l0.215,0.587c0.45,1.231,0.911,2.454,1.389,3.667c-6.385,0.212-12.433,1.169-17.991,2.85
	l-0.467,0.138c-0.366,0.109-0.734,0.216-1.094,0.335c-1.001,0.331-1.981,0.702-2.956,1.081c-0.763,0.296-1.523,0.611-2.268,0.938
	c-0.804,0.352-1.601,0.718-2.384,1.104c-0.949,0.47-1.874,0.983-2.793,1.504l-0.502,0.281c-0.424,0.235-0.847,0.468-1.256,0.722
	c-1.627,1.001-3.06,1.973-4.383,2.97c-1.775,1.34-3.51,2.822-5.181,4.437c-1.564,1.511-3.089,3.16-4.574,4.953
	c-1.384,1.674-2.712,3.464-4,5.384c-1.178,1.761-2.332,3.667-3.464,5.732c-1.024,1.877-2.013,3.875-2.959,5.993
	c-0.867,1.943-1.7,4.009-2.489,6.174c-0.731,2.015-1.421,4.121-1.999,6.137l-0.084,0.244c-0.56,1.913-1.082,3.897-1.555,5.9
	c-0.122,0.083-0.241,0.168-0.363,0.255l-0.293,0.207c-0.499,0.339-0.989,0.688-1.456,1.065c-0.334,0.267-0.653,0.55-0.969,0.837
	c-0.429,0.386-0.838,0.79-1.236,1.208l-0.151,0.157c-0.22,0.229-0.441,0.458-0.647,0.702c-0.661,0.772-1.213,1.492-1.68,2.199
	c-0.073,0.109-0.139,0.225-0.203,0.341l-0.104,0.18c-0.426,0.68-0.812,1.372-1.146,2.058c-0.125,0.255-0.238,0.515-0.406,0.901
	c-0.278,0.64-0.528,1.294-0.745,1.962l-0.081,0.238c-0.07,0.21-0.139,0.421-0.203,0.643c-0.267,0.946-0.455,1.767-0.586,2.553
	c-9.303,4.888-14.057,15.721-11.319,25.914c2.573,9.571,11.206,16.385,21.103,16.734c4.316,13.43,17.613,22.416,33.272,22.417
	c3.542,0,7.107-0.474,10.588-1.411c9.445-2.54,17.465-8.206,22.585-15.958c4.914-7.443,6.62-16.019,4.827-24.213
	c8.389-5.266,12.438-15.49,9.865-25.064c-0.209-0.773-0.482-1.569-0.856-2.505l-0.229-0.553c-0.27-0.625-0.534-1.184-0.801-1.691
	c1.798-1.181,3.771-2.29,5.874-3.304l0.598-0.271c0.937-0.438,1.883-0.86,2.851-1.255l0.798-0.309
	c0.931-0.366,1.871-0.718,2.825-1.047l0.824-0.271c0.978-0.323,1.964-0.634,2.967-0.922l0.751-0.212
	c1.053-0.292,2.118-0.569,3.313-0.854l0.487-0.115c1.157-0.27,2.323-0.521,3.492-0.748l0.383-0.075
	c1.213-0.232,2.428-0.447,3.652-0.64c0.661,0.413,1.329,0.808,1.993,1.204l0.328,0.194c0.493,0.296,0.986,0.59,1.485,0.873
	c0.798,0.455,1.601,0.899,2.413,1.33c0.571,0.305,1.149,0.598,1.723,0.891l0.299,0.151c0.702,0.355,1.404,0.712,2.112,1.049
	c0.731,0.345,1.468,0.667,2.207,0.991l0.29,0.126c1.14,0.5,2.292,0.973,3.446,1.426c0.699,0.273,1.398,0.545,2.1,0.799
	c0.748,0.273,1.497,0.529,2.251,0.782c0.76,0.254,1.523,0.495,2.289,0.727l0.392,0.119c0.566,0.174,1.134,0.348,1.703,0.508
	c1.366,0.38,2.741,0.734,4.122,1.05c0.36,0.083,0.725,0.155,1.091,0.226l0.56,0.113c0.983,0.206,1.973,0.403,2.965,0.576
	c0.624,0.109,1.247,0.206,1.871,0.3c0.989,0.151,1.978,0.283,2.97,0.4l0.455,0.055c0.409,0.049,0.818,0.099,1.227,0.138
	c1.505,0.151,3.017,0.271,4.534,0.344l0.798,0.023c1.186,0.045,2.373,0.07,3.565,0.07c0.583-0.001,1.137-0.009,1.941-0.028
	c1.14-0.023,2.277-0.07,3.417-0.138l0.444-0.026c0.336-0.019,0.676-0.038,1.012-0.062c1.593-0.12,3.182-0.268,4.778-0.471
	c1.523-0.191,3.121-0.441,4.885-0.76c0.403-0.074,0.806-0.158,1.21-0.241l0.574-0.119c0.995-0.202,1.993-0.408,2.985-0.641
	c0.751-0.178,1.5-0.371,2.245-0.567c0.798-0.209,1.592-0.425,2.384-0.656c0.856-0.248,1.706-0.503,2.553-0.776
	c0.627-0.202,1.247-0.413,1.865-0.628c0.972-0.334,1.943-0.669,2.901-1.033l1.001-0.4c3.893-1.533,7.681-3.301,11.264-5.259
	c3.115,0.901,6.077,1.959,8.807,3.15l0.493,0.223c1.155,0.516,2.338,1.095,3.513,1.72l0.705,0.374
	c1.184,0.656,2.228,1.279,3.173,1.897c-0.267,0.506-0.528,1.063-0.798,1.685c-0.081,0.184-0.157,0.37-0.232,0.558
	c-0.363,0.896-0.641,1.716-0.856,2.506c-2.573,9.574,1.477,19.798,9.865,25.063c-1.793,8.195-0.087,16.772,4.824,24.213
	c5.12,7.752,13.14,13.419,22.585,15.958c3.481,0.937,7.046,1.411,10.591,1.411c15.661-0.001,28.955-8.987,33.269-22.417
	c9.897-0.35,18.53-7.163,21.103-16.734c2.741-10.192-2.01-21.025-11.316-25.914c-0.128-0.767-0.31-1.566-0.571-2.482
	c-0.084-0.293-0.174-0.585-0.27-0.88c-0.215-0.653-0.461-1.291-0.731-1.917l-0.125-0.296c-0.093-0.223-0.186-0.447-0.29-0.661
	c-0.342-0.699-0.722-1.376-1.134-2.032c-0.305-0.489-0.635-0.962-0.978-1.423c-0.148-0.203-0.302-0.402-0.458-0.602
	c-0.464-0.592-0.957-1.16-1.477-1.703c2.019,0.722,4.049,1.414,6.071,2.068c1.123,0.367,2.242,0.73,3.365,1.075
	c1.137,0.351,2.274,0.683,3.408,1.011c2.956,0.848,5.384,1.495,7.641,2.033c15.087,3.604,33.858,8.092,58.268,4.073
	c15.362-2.527,41.081-6.757,59.645-29.359C639.757,433.927,649.709,403.023,636.073,377.696z M218.784,303.582
	c1.236-5.593,1.961-10.921,2.161-15.87c1.729,1.34,3.507,2.667,5.334,3.981c2.161,1.552,4.403,3.089,6.715,4.605
	c2.248,1.471,11.31,6.859,13.526,8.057c-1.062,2.616-2.054,5.288-2.956,7.958c-2.039-0.576-4.116-1.201-6.184-1.859l-0.392-0.131
	c-2.026-0.65-4.029-1.32-5.987-2.013c-0.091-0.032-0.788-0.285-0.887-0.321c-1.871-0.671-4.142-1.523-5.513-2.056
	C223.14,305.364,220.441,304.277,218.784,303.582z M124.893,171.325l0.078,0.022c1.143,0.316,2.297,0.609,3.458,0.876l0.302,0.065
	c1.094,0.248,2.19,0.477,3.298,0.682l0.641,0.107c1.004,0.177,2.01,0.345,3.023,0.486l1.114,0.132c0.87,0.11,1.74,0.219,2.614,0.3
	c0.409,0.038,0.821,0.064,1.233,0.091l1.239,0.087c0.444,0.033,0.885,0.067,1.331,0.087c3.977,0.19,8.041,0.084,12.061-0.306
	c0.818-0.08,1.633-0.181,2.448-0.289c0.438,6.725,1.389,13.607,2.834,20.471l0.305,1.423c0.406,1.777,1.009,4.419,1.114,4.837
	c0.786,3.088,1.709,6.245,2.741,9.388c0.78,2.38,1.691,4.882,2.863,7.871c0.067,0.171,0.128,0.344,0.189,0.516
	c0.075,0.213,0.148,0.426,0.232,0.637c2.167,5.395,4.693,10.773,7.522,16.006c-8.691-1.505-17.767-1.669-26.365-0.457
	c-3.249,0.46-10.927,1.813-15.304,4.788c-8.119-24.008-12.169-49.661-14.779-69.662
	C120.994,170.167,122.943,170.785,124.893,171.325z"/>
<path d="M347.028,238.68c-2.884,0.319-5.767,1.189-8.583,2.49l-0.899,0.415c0,0,0.511-3.965,4.084-7.49
	c1.256-1.239,2.918-1.848,4.986-2.28c2.004-0.212,3.676-0.065,5.094,0.74c3.771,2.141,4.841,6.092,4.841,6.092l-0.806-0.12
	C352.871,238.1,349.195,238.441,347.028,238.68z M324.163,238.68c2.884,0.319,5.767,1.189,8.583,2.49l0.899,0.415
	c0,0-0.511-3.965-4.084-7.49c-1.256-1.239-2.918-1.848-4.986-2.28c-2.004-0.212-3.676-0.065-5.094,0.74
	c-3.771,2.141-4.841,6.092-4.841,6.092l0.806-0.12C318.321,238.1,321.997,238.441,324.163,238.68z M352.109,278.165
	c-5.082,2.428-10.55,3.626-15.769,3.6c-5.262,0.081-10.628-1.14-15.728-3.581c-5.488-2.709-10.019-6.653-13.465-11.725l-5.732-8.424
	l3.086,9.709c2.213,6.962,6.875,13.074,13.126,17.207c5.453,3.674,11.925,5.652,18.733,5.722c6.724-0.025,13.196-2.002,18.713-5.712
	c6.271-4.144,10.936-10.259,13.14-17.219l3.057-9.661l-5.703,8.377C362.134,271.511,357.6,275.452,352.109,278.165z
	 M410.765,173.154c-3.814-0.957-7.98-1.104-12.038-0.432c-8.348,1.398-15.687,6.151-19.635,12.715l-3.052,5.065l5.082-3.023
	c3.556-2.116,6.512-3.627,9.303-4.756c3.289-1.291,6.399-2.167,9.517-2.677c3.171-0.525,6.48-0.699,9.86-0.531
	c3.017,0.167,6.306,0.638,10.359,1.485l5.656,1.184l-4.386-3.765C418.545,175.945,414.855,174.125,410.765,173.154z
	 M285.044,180.046c3.113,0.511,6.225,1.385,9.503,2.673c2.802,1.133,5.761,2.645,9.311,4.76l5.082,3.025l-3.052-5.068
	c-3.945-6.564-11.284-11.319-19.632-12.715c-4.073-0.674-8.232-0.526-12.021,0.429c-4.102,0.973-7.797,2.795-10.686,5.268
	l-4.392,3.765l5.662-1.184c4.055-0.846,7.345-1.318,10.35-1.485C278.589,179.355,281.917,179.531,285.044,180.046z M623.841,453.32
	c-18.565,22.601-44.283,26.832-59.645,29.359c-24.41,4.019-43.181-0.468-58.268-4.073c-2.257-0.538-4.685-1.185-7.641-2.033
	c-1.134-0.328-2.271-0.66-3.408-1.011c-1.123-0.345-2.242-0.708-3.365-1.075c-2.022-0.654-4.052-1.346-6.071-2.068
	c0.519,0.542,1.012,1.111,1.477,1.703c0.157,0.2,0.31,0.399,0.458,0.602c0.342,0.461,0.673,0.934,0.978,1.423
	c0.412,0.656,0.792,1.333,1.134,2.032c0.104,0.215,0.197,0.438,0.29,0.661l0.125,0.296c0.27,0.627,0.516,1.265,0.731,1.917
	c0.096,0.296,0.186,0.587,0.27,0.88c0.261,0.915,0.444,1.714,0.571,2.482c9.306,4.889,14.057,15.722,11.316,25.914
	c-2.573,9.571-11.206,16.385-21.103,16.734c-4.313,13.43-17.608,22.416-33.269,22.417c-3.545,0-7.11-0.474-10.591-1.411
	c-9.445-2.54-17.465-8.206-22.585-15.958c-4.911-7.44-6.617-16.018-4.824-24.213c-8.389-5.265-12.438-15.489-9.865-25.063
	c0.215-0.79,0.493-1.61,0.856-2.506c0.075-0.189,0.151-0.374,0.232-0.558c0.27-0.622,0.531-1.179,0.798-1.685
	c-0.946-0.618-1.99-1.242-3.173-1.897l-0.705-0.374c-1.175-0.625-2.358-1.204-3.513-1.72l-0.493-0.223
	c-2.73-1.191-5.691-2.25-8.807-3.15c-3.582,1.958-7.371,3.726-11.264,5.259l-1.001,0.4c-0.957,0.364-1.929,0.699-2.901,1.033
	c-0.618,0.215-1.239,0.426-1.865,0.628c-0.847,0.273-1.697,0.528-2.553,0.776c-0.792,0.231-1.587,0.447-2.384,0.656
	c-0.746,0.196-1.494,0.389-2.245,0.567c-0.992,0.234-1.99,0.439-2.985,0.641l-0.574,0.119c-0.403,0.083-0.806,0.167-1.21,0.241
	c-1.764,0.319-3.362,0.569-4.885,0.76c-1.595,0.203-3.185,0.351-4.778,0.471c-0.336,0.025-0.676,0.044-1.012,0.062l-0.444,0.026
	c-1.14,0.068-2.277,0.115-3.417,0.138c-0.804,0.019-1.358,0.026-1.941,0.028c-1.192,0-2.379-0.025-3.565-0.07l-0.798-0.023
	c-1.517-0.073-3.028-0.193-4.534-0.344c-0.409-0.039-0.818-0.088-1.227-0.138l-0.455-0.055c-0.992-0.117-1.981-0.249-2.97-0.4
	c-0.624-0.094-1.247-0.191-1.871-0.3c-0.992-0.173-1.981-0.37-2.965-0.576l-0.56-0.113c-0.365-0.071-0.731-0.144-1.091-0.226
	c-1.381-0.316-2.756-0.67-4.122-1.05c-0.569-0.16-1.137-0.334-1.703-0.508l-0.392-0.119c-0.766-0.232-1.529-0.473-2.289-0.727
	c-0.754-0.252-1.503-0.509-2.251-0.782c-0.702-0.254-1.401-0.526-2.1-0.799c-1.155-0.453-2.306-0.925-3.446-1.426l-0.29-0.126
	c-0.74-0.323-1.477-0.645-2.207-0.991c-0.708-0.336-1.41-0.693-2.112-1.049l-0.299-0.151c-0.574-0.293-1.152-0.586-1.723-0.891
	c-0.812-0.431-1.616-0.875-2.413-1.33c-0.499-0.283-0.992-0.577-1.485-0.873l-0.328-0.194c-0.664-0.396-1.331-0.79-1.993-1.204
	c-1.224,0.193-2.44,0.408-3.652,0.64l-0.383,0.075c-1.169,0.228-2.335,0.479-3.492,0.748l-0.487,0.115
	c-1.195,0.286-2.26,0.563-3.313,0.854l-0.751,0.212c-1.004,0.289-1.99,0.599-2.967,0.922l-0.824,0.271
	c-0.954,0.329-1.894,0.682-2.825,1.047l-0.798,0.309c-0.969,0.395-1.914,0.817-2.851,1.255l-0.598,0.271
	c-2.103,1.014-4.076,2.123-5.874,3.304c0.267,0.508,0.531,1.066,0.801,1.691l0.229,0.553c0.374,0.935,0.647,1.732,0.856,2.505
	c2.573,9.574-1.476,19.798-9.865,25.064c1.793,8.193,0.087,16.769-4.827,24.213c-5.12,7.752-13.14,13.419-22.585,15.958
	c-3.481,0.937-7.046,1.411-10.588,1.411c-15.658-0.001-28.955-8.987-33.272-22.417c-9.897-0.35-18.53-7.163-21.103-16.734
	c-2.738-10.193,2.016-21.026,11.319-25.914c0.131-0.786,0.319-1.607,0.586-2.553c0.064-0.222,0.133-0.432,0.203-0.643l0.081-0.238
	c0.218-0.669,0.467-1.323,0.745-1.962c0.168-0.386,0.281-0.645,0.406-0.901c0.334-0.686,0.719-1.378,1.146-2.058l0.104-0.18
	c0.064-0.116,0.131-0.232,0.203-0.341c0.467-0.706,1.018-1.427,1.68-2.199c0.206-0.244,0.426-0.473,0.647-0.702l0.151-0.157
	c0.397-0.418,0.806-0.822,1.236-1.208c0.316-0.287,0.635-0.57,0.969-0.837c0.467-0.377,0.957-0.725,1.456-1.065l0.293-0.207
	c0.122-0.087,0.241-0.173,0.363-0.255c0.473-2.003,0.995-3.987,1.555-5.9l0.084-0.244c0.577-2.016,1.268-4.122,1.999-6.137
	c0.789-2.165,1.622-4.231,2.489-6.174c0.946-2.118,1.935-4.116,2.959-5.993c1.131-2.065,2.286-3.971,3.464-5.732
	c1.288-1.92,2.616-3.71,4-5.384c1.485-1.793,3.011-3.442,4.574-4.953c1.671-1.614,3.405-3.097,5.181-4.437
	c1.323-0.998,2.756-1.97,4.383-2.97c0.409-0.254,0.833-0.487,1.256-0.722l0.502-0.281c0.92-0.521,1.845-1.034,2.793-1.504
	c0.783-0.386,1.581-0.751,2.384-1.104c0.745-0.328,1.505-0.643,2.268-0.938c0.975-0.379,1.955-0.75,2.956-1.081
	c0.36-0.119,0.728-0.226,1.094-0.335l0.467-0.138c5.558-1.681,11.606-2.638,17.991-2.85c-0.479-1.213-0.94-2.435-1.389-3.667
	l-0.215-0.587c-0.516-1.432-1.007-2.889-1.476-4.357l-0.336-1.057c-0.424-1.355-0.827-2.721-1.213-4.096l-0.409-1.511
	c-0.336-1.268-0.658-2.537-0.966-3.815c-0.113-0.483-0.22-0.967-0.328-1.45l-0.122-0.551c-0.258-1.156-0.511-2.318-0.74-3.487
	c-0.142-0.727-0.27-1.458-0.397-2.187l-0.165-0.928c-0.151-0.838-0.299-1.677-0.432-2.524c-0.148-0.951-0.273-1.912-0.397-2.87
	l-0.183-1.369c-0.073-0.515-0.145-1.028-0.203-1.546c-0.226-1.962-0.418-3.935-0.566-5.923c-0.154-2.038-0.261-4.213-0.339-6.849
	l-0.038-1.697c-0.041-2.284-0.044-4.225-0.006-6.035c-1.694,0.033-3.536,0.029-5.511-0.03l-1.227-0.045
	c-0.76-0.029-1.529-0.067-2.326-0.113c-0.542-0.03-1.096-0.064-1.659-0.103c-0.687-0.048-1.401-0.109-2.115-0.17
	c-2.843-0.242-5.781-0.582-8.731-1.009l-1.14-0.167c-1.117-0.17-2.26-0.357-3.429-0.56l-0.798-0.142
	c-14.17-2.519-29.303-7.068-44.982-13.52c-0.774,0.247-1.74,0.54-2.75,0.779c-1.337,0.339-2.535,0.58-3.655,0.734
	c-0.189,0.026-0.38,0.042-0.571,0.058l-0.374,0.035c-2.457,0.917-5.427,1.131-8.696,0.219c-0.177-0.054-0.339-0.112-0.502-0.168
	l-0.307-0.107c-0.844-0.086-1.83-0.228-2.825-0.419c-2.695-0.524-5.288-1.286-7.713-2.27c-0.557,0.458-1.181,0.914-1.894,1.384
	c-0.203,0.133-0.409,0.254-0.615,0.374l-0.241,0.141c-0.499,0.296-1.001,0.577-1.52,0.83c-0.383,0.186-0.763,0.363-1.149,0.524
	c-0.415,0.174-0.835,0.325-1.259,0.473l-0.194,0.067c-0.412,0.144-0.824,0.286-1.244,0.4c-0.116,0.03-0.226,0.055-0.339,0.077
	l-0.203,0.045c-2.158,0.531-4.392,0.727-6.637,0.566c-0.528-0.041-1.015-0.091-1.471-0.154c0.644,4.173,1.578,8.419,2.782,12.639
	c6.019,21.073,1.163,39.211-13.674,51.074c-0.47,0.377-1.622,1.294-2.857,0.422c-0.951-0.669-1.108-1.871-0.429-3.298
	c0.215-0.447,4.899-11.094-16.624-42.998c-17.387-25.772-24.256-45.134-20.999-59.194c1.421-6.139,4.833-11.255,10.144-15.222
	c-7.261-3.056-26.638-9.793-40.611-1.756c-9.317,5.358-9.921,19.786-10.562,35.06c-0.508,12.119-1.036,24.649-6.387,32.97
	c-0.661,1.036-2.953,4.325-4.638,3.269c-1.256-0.79-0.867-2.728-0.525-4.438c0.087-0.438,0.174-0.863,0.223-1.242
	c0.589-4.437,1.175-16.511-6.08-32.747c-7.246-16.218-15.528-39.804-3.846-57.304c9.242-13.847,29.393-20.858,59.918-20.858
	c0.879,0,1.764,0.006,2.657,0.017c-3.812-13.84-18.022-72.699,3.585-111.994c-1.616-3.255-3.031-6.647-4.206-10.087
	c-0.435-1.288-0.804-2.45-1.146-3.623l-0.125-0.47c-0.307-1.069-0.6-2.148-0.864-3.239l-0.206-0.938
	c-0.218-0.946-0.435-1.89-0.618-2.846c-0.078-0.402-0.145-0.806-0.212-1.213l-0.209-1.23c-0.084-0.477-0.168-0.953-0.235-1.436
	c-0.191-1.307-0.354-2.628-0.484-3.96c-4.476-46.023,29.321-87.11,75.344-91.589c30.794-2.999,60.487,11.084,77.766,36.796
	c10.449-8.592,22.011-16.112,34.38-22.362l0.815-0.419c0.397-0.205,0.792-0.409,1.195-0.608C280.426,7.065,311.304,0,342.49,0
	c30.548,0,60.855,6.782,87.646,19.612c0.403,0.193,0.801,0.395,1.198,0.595l0.821,0.409c12.958,6.393,25.065,14.192,36.007,23.189
	c1.564-2.325,3.208-4.54,4.894-6.591c14.234-17.299,34.348-28.02,56.64-30.191c22.304-2.165,44.103,4.474,61.4,18.703
	c17.297,14.228,28.018,34.344,30.191,56.639c2.167,22.295-4.473,44.1-18.701,61.399c-14.234,17.299-34.348,28.02-56.64,30.191
	c-2.756,0.267-5.54,0.403-8.276,0.403c-3.202,0-6.617-0.236-10.417-0.722c-0.464,7.143-1.523,14.502-3.147,21.891
	c-0.017,0.078-0.731,3.304-0.745,3.366c-3.272,13.407-8.453,26.427-15.406,38.7c-0.041,0.071-1.825,3.052-1.868,3.123
	c-1.03,1.726-2.181,3.558-3.516,5.594c-0.287,0.438-0.58,0.872-0.873,1.304l-0.31,0.457c-0.853,1.266-1.72,2.522-2.611,3.767
	c-0.47,0.656-0.94,1.31-1.418,1.958c-0.902,1.224-1.83,2.435-2.77,3.638l-0.531,0.683c-0.27,0.351-0.54,0.702-0.815,1.047
	c-1.302,1.622-2.637,3.218-4,4.795c-0.493,0.564-0.992,1.12-1.494,1.674l-0.476,0.526c-0.792,0.882-1.584,1.762-2.396,2.631
	c-0.798,0.854-1.61,1.7-2.431,2.54c-0.667,0.689-1.352,1.371-2.036,2.051c-0.92,0.915-1.839,1.829-2.785,2.727l-1.253,1.159
	c-2.448,2.28-4.896,4.443-7.281,6.43l-0.412,0.351c-1.308,1.085-2.64,2.147-3.983,3.198l-0.94,0.731
	c-1.395,1.078-2.808,2.144-4.241,3.186l-0.16,0.115c-6.155,4.461-12.682,8.604-19.406,12.32c0.174,0.474,0.339,0.951,0.508,1.427
	l0.482,1.36c0.2,0.56,0.403,1.118,0.589,1.684c0.424,1.275,0.833,2.556,1.227,3.845c2.741-0.799,5.54-1.682,8.38-2.641l0.772-0.26
	c1.418-0.483,2.814-0.978,4.189-1.481l0.734-0.273c3.977-1.466,8.026-3.091,12.044-4.83l0.972-0.422
	c1.201-0.526,2.39-1.054,3.545-1.582c2.393-1.096,4.604-2.152,6.724-3.195l1.059-0.522c0.922-0.458,1.819-0.912,2.698-1.365
	l1.343-0.696c1.59-0.827,3.101-1.632,4.525-2.409l0.838-0.454c0.696-0.384,1.358-0.753,2.01-1.123l1.25-0.706
	c0.612-0.351,1.224-0.699,1.796-1.033l0.844-0.497c1.215-0.712,2.341-1.388,3.324-1.988c0.49-0.88,1.018-1.745,1.575-2.599
	l0.249-0.383c0.664-0.996,1.317-1.891,1.99-2.733c0.673-0.833,1.378-1.642,2.1-2.416c-1.369-1.59-2.489-3.353-3.342-5.253
	c-2.358-5.259-2.524-11.13-0.464-16.531c2.057-5.401,6.089-9.674,11.348-12.031c5.265-2.366,11.133-2.531,16.537-0.477
	c5.155,1.964,9.282,5.732,11.702,10.659c1.152-0.815,2.376-1.513,3.643-2.08c5.259-2.361,11.133-2.531,16.537-0.477
	c5.395,2.055,9.665,6.089,12.029,11.358c1.323,2.957,1.955,6.073,1.88,9.272c7.365,1.015,13.758,5.774,16.798,12.552
	c4.789,10.694,0.151,23.261-10.344,28.314c4.429,10.859-0.473,23.238-11.113,28.011c-7.498,3.362-16.325,2.138-22.632-3.092
	c-2.422,0.983-5.015,1.746-7.71,2.27c-4.427,0.86-8.888,0.991-13.277,0.383c-1.12-0.154-2.318-0.395-3.667-0.737
	c-0.809-0.191-1.668-0.435-2.738-0.777c-15.684,6.456-30.818,11.004-44.985,13.522l-0.792,0.142c-1.172,0.203-2.315,0.39-3.432,0.56
	l-1.14,0.167c-2.95,0.428-5.889,0.767-8.731,1.009c-0.716,0.061-1.427,0.122-2.115,0.17c-0.566,0.039-1.117,0.073-1.662,0.103
	c-0.795,0.046-1.564,0.084-2.324,0.113l-1.224,0.045c-1.973,0.058-3.809,0.065-5.494,0.032c-0.035,4.818-0.313,9.729-0.827,14.611
	l-0.125,1.082c-0.252,2.221-0.554,4.435-0.893,6.582l-0.145,0.921c-0.818,4.943-1.9,9.879-3.214,14.666l-0.249,0.86
	c-0.586,2.076-1.218,4.145-1.883,6.148l-0.429,1.278c-0.748,2.193-1.532,4.322-2.326,6.329l-0.177,0.461
	c-0.85,2.12-1.74,4.197-2.651,6.184c3.365,0.97,6.547,2.183,9.474,3.61c0.131,0.061,0.258,0.133,0.383,0.204l0.264,0.144
	c1.624,0.811,2.93,1.521,4.107,2.238c1.593,0.967,3.136,2.015,4.586,3.11c1.021,0.769,2.051,1.617,3.243,2.669
	c0.22,0.191,0.432,0.389,0.644,0.586c0.98,0.896,1.819,1.706,2.622,2.54l0.473,0.483c1.932,2.038,3.774,4.279,5.48,6.659
	c2.051,1.092,4.16,2.168,6.443,3.285l0.815,0.393c4.038,1.952,8.14,3.768,12.183,5.397l0.737,0.296
	c3.556,1.416,7.133,2.721,10.631,3.878l0.824,0.271c2.892,0.943,5.778,1.803,8.578,2.558l0.841,0.225
	c1.195,0.315,2.344,0.608,3.376,0.854c13.549,3.236,28.921,6.902,48.301,3.716c12.63-2.078,31.711-5.217,44.239-20.474
	c7.348-8.94,18.794-30.4,9.517-47.626c-6.689-12.412-21.297-18.565-31.772-20.062c-8.154-1.17-12.172,0.586-12.618,0.979
	c-0.714,0.724-1.856,6.562,1.024,11.053c0.711,1.099,1.674,2.065,2.866,2.867c4.566,3.092,6.736,8.634,5.398,13.79
	c-1.009,3.931-3.884,7.158-7.693,8.631c-3.797,1.475-7.934,1.05-11.339-1.17c-4.27-2.78-7.794-6.305-10.475-10.478
	c-8.604-13.406-7.586-32.448,2.268-42.447c7.188-7.297,19.641-10.288,34.139-8.219c17.077,2.438,39.291,12.408,50.427,33.083
	C649.709,403.023,639.757,433.927,623.841,453.32z M502.226,317.842c6.28,14.014,21.692,21.657,37.507,18.581
	c2.846-0.553,5.54-1.395,8.009-2.503c0.18-0.08,0.345-0.168,0.513-0.258l0.925-0.46l0.374,0.4c5.01,5.361,12.862,6.949,19.545,3.952
	c4.183-1.875,7.388-5.266,9.018-9.549c1.633-4.283,1.5-8.946-0.377-13.129c-0.447-0.991-1.001-1.959-1.645-2.878l-0.635-0.902
	l1.073-0.249c1.096-0.254,2.152-0.608,3.141-1.052c8.633-3.871,12.508-14.044,8.638-22.678c-2.924-6.525-9.7-10.583-16.848-10.082
	l-1.001,0.07l0.223-0.976c0.844-3.675,0.479-7.423-1.05-10.837c-3.87-8.628-14.04-12.51-22.675-8.638
	c-2.602,1.165-4.885,2.972-6.608,5.223l-1.053,1.379l-0.27-1.714c-0.241-1.537-0.67-3.001-1.276-4.351
	c-3.867-8.631-14.045-12.505-22.675-8.638c-8.636,3.87-12.511,14.043-8.638,22.678c1.149,2.567,2.857,4.749,5.079,6.485l0.711,0.555
	l-0.685,0.59c-1.561,1.352-3.063,2.917-4.461,4.654C499.07,293.489,497.205,306.641,502.226,317.842z M443.848,315.623
	c2.454,8.933,4.055,18.241,4.757,27.68c0.194,2.574,0.31,5.276,0.363,8.448c13.509,0.319,35.871-1.946,66.674-14.166
	c-7.818-3.814-13.987-10.124-17.483-17.922c-3.806-8.493-4.197-17.973-1.154-26.913
	C486.388,298.846,466.834,308.964,443.848,315.623z M472.786,244.315c0.044-12.99-5.12-25.718-15.348-37.833
	c-0.429-0.512-1.987-2.184-1.987-2.186l-0.45-0.483l0.424-0.503c0.003-0.001,1.285-1.519,1.903-2.297
	c11.342-14.328,16.618-32.197,14.855-50.311c-0.319-3.295-0.951-6.757-1.929-10.582c-2.448-9.587-6.77-18.347-12.85-26.034
	c-13.457-17.009-33.507-26.764-55.013-26.764c-2.277,0-4.58,0.112-6.849,0.334c-18.658,1.816-35.491,10.789-47.398,25.264
	c-1.027,1.244-2.048,2.599-3.223,4.263c-0.621,0.879-1.215,1.768-1.79,2.669l-0.627,0.983l-0.627-0.983
	c-0.574-0.901-1.172-1.79-1.787-2.664c-3.652-5.188-7.983-9.857-12.868-13.877c-12.717-10.459-28.085-15.988-44.448-15.988
	c-2.3,0-4.63,0.115-6.927,0.339c-19.136,1.862-36.268,11.235-48.24,26.39c-6.164,7.806-10.527,16.598-12.966,26.134
	c-2.013,7.876-2.634,15.99-1.842,24.117c1.302,13.365,6.39,26.007,14.718,36.56c0.598,0.759,1.839,2.236,1.839,2.238l0.435,0.521
	l-0.479,0.48c-0.009,0.01-0.992,1.001-1.932,2.131c-10.034,12.042-15.142,24.556-15.185,37.192
	c-0.017,5.242,0.798,10.488,2.422,15.593c1.627,2.751,3.028,6.015,4.099,9.554c6.306,11.78,16.752,22.285,31.05,31.222
	c10.289,6.432,22.118,11.719,35.163,15.709l0.902,0.274c0.482,0.146,0.96,0.293,1.445,0.432c0.922,0.265,1.851,0.519,2.776,0.772
	c5.282,1.42,10.567,2.618,15.708,3.559l1.012,0.178c2.289,0.408,4.598,0.766,6.915,1.095l0.78,0.113
	c0.418,0.061,0.838,0.122,1.259,0.177c2.329,0.307,4.786,0.585,7.307,0.824c0.972,0.091,1.946,0.164,2.924,0.236l0.867,0.065
	c1.3,0.099,2.599,0.189,3.907,0.264c1.401,0.08,2.805,0.152,4.218,0.204c1.865,0.07,3.739,0.11,5.616,0.128l0.745,0.014
	c0.302,0.007,0.6,0.014,0.905,0.016l0.737,0.001c3.017-0.01,5.845-0.074,8.522-0.191l0.656-0.03
	c22.35-1.044,44.065-5.728,64.545-13.918C451.715,294.824,472.697,270.372,472.786,244.315z M232.995,296.298
	c-2.312-1.516-4.554-3.053-6.715-4.605c-1.827-1.314-3.606-2.641-5.334-3.981c-0.2,4.949-0.925,10.277-2.161,15.87
	c1.656,0.696,4.356,1.782,5.818,2.351c1.371,0.533,3.642,1.385,5.513,2.056c0.099,0.036,0.796,0.289,0.887,0.321
	c1.958,0.693,3.961,1.363,5.987,2.013l0.392,0.131c2.068,0.658,4.145,1.284,6.184,1.859c0.902-2.67,1.894-5.342,2.956-7.958
	C244.305,303.157,235.243,297.769,232.995,296.298z M525.714,141.215c5.706,1.359,11.478,1.771,17.161,1.221
	c13.88-1.349,26.4-8.023,35.253-18.79c8.859-10.769,12.995-24.34,11.641-38.213c-1.349-13.877-8.023-26.397-18.791-35.253
	c-9.454-7.778-20.885-11.89-33.057-11.89c-1.708,0-3.443,0.084-5.152,0.251c-13.88,1.349-26.4,8.022-35.253,18.79
	c-2.312,2.811-4.377,5.98-6.144,9.429C509.591,88.609,521.455,114.336,525.714,141.215z M471.594,46.699
	c5.929,5.129,11.513,10.65,16.621,16.43c1.694-3.06,3.661-5.958,5.857-8.628c9.613-11.687,23.2-18.929,38.261-20.395
	c15.078-1.463,29.794,3.023,41.478,12.634s18.927,23.2,20.395,38.261c1.465,15.064-3.025,29.792-12.636,41.475
	c-9.613,11.687-23.2,18.929-38.261,20.395c-5.584,0.54-11.168,0.267-16.923-0.922c0.783,6.228,1.181,12.349,1.181,18.207
	c0,1.659-0.067,3.304-0.133,4.949l-0.006,0.115c5.999,0.782,12.079,0.885,18.083,0.3c21.112-2.054,40.158-12.206,53.632-28.586
	c13.477-16.383,19.763-37.03,17.706-58.137c-2.051-21.107-12.203-40.154-28.584-53.631c-14.388-11.834-31.781-18.089-50.299-18.089
	c-2.596,0-5.23,0.128-7.835,0.381c-21.112,2.054-40.158,12.206-53.632,28.586C474.805,42.103,473.158,44.338,471.594,46.699z
	 M216.415,49.944c-6.469,5.585-12.473,11.593-17.848,17.857c-0.693,0.806-1.366,1.626-2.039,2.444
	c-17.277,20.97-28.575,45.439-32.747,70.852c-0.125,0.763-0.232,1.532-0.336,2.3l-0.122,0.889c-0.963,6.805-1.45,13.489-1.45,19.869
	c0,1.334,0.052,2.659,0.102,3.981l0.046,1.201c0.015,0.412,0.023,0.828,0.032,1.244c0.009,0.58,0.02,1.162,0.055,1.738
	c0.47,8.241,1.723,16.65,3.727,24.996c3.084,12.847,8.003,25.374,14.623,37.228c0.18,0.325,0.374,0.641,0.571,0.957
	c0.11,0.183,0.223,0.365,0.334,0.548c11.026,2.785,20.244,7.771,26.835,14.497c-0.31-2.397-0.464-4.791-0.455-7.14
	c0.046-13.942,5.648-27.733,16.204-39.919c-8.821-11.219-14.205-24.606-15.583-38.753c-0.641-6.579-0.397-13.239,0.728-19.798
	c0.38-2.235,0.85-4.409,1.395-6.463c2.57-9.706,7.029-18.69,13.251-26.7c1.387-1.787,2.849-3.506,4.34-5.107
	c12.43-13.355,29.24-21.68,47.337-23.441c19.832-1.938,39.236,3.967,54.644,16.643c4.664,3.838,8.847,8.224,12.45,13.043
	c0.777-1.05,1.488-1.962,2.196-2.824c12.665-15.394,30.565-24.936,50.404-26.868c23.284-2.265,45.815,6.277,61.835,23.457
	c1.503,1.611,2.956,3.318,4.319,5.075c6.237,8.006,10.698,17.02,13.259,26.79c0.528,2.023,0.989,4.184,1.369,6.422
	c0.339,2.01,0.571,3.696,0.731,5.305c1.871,19.249-3.707,38.193-15.722,53.415c10.742,12.366,16.392,26.408,16.343,40.648
	c-0.049,14.344-5.836,28.249-16.824,40.634c18.254-13.98,33.399-31.273,44.1-50.435c5.784-10.353,10.28-21.225,13.367-32.316
	l0.107-0.409c0.409-1.488,0.803-2.983,1.163-4.489c1.993-8.295,3.243-16.687,3.719-24.945c0.035-0.582,0.046-1.169,0.055-1.755
	c0.009-0.419,0.017-0.838,0.032-1.256l0.044-1.102c0.052-1.365,0.107-2.728,0.107-4.103c0-6.441-0.473-12.929-1.445-19.832
	l-0.104-0.766c-0.113-0.818-0.223-1.637-0.36-2.451c-4.177-25.435-15.484-49.918-32.7-70.803l-0.241-0.294
	c-0.609-0.738-1.218-1.476-1.842-2.205c-5.398-6.286-11.417-12.305-17.886-17.888c-0.754-0.65-1.52-1.289-2.286-1.928
	c-11.052-9.211-23.325-17.151-36.48-23.599l-0.406-0.2c-0.534-0.264-1.07-0.528-1.613-0.786C401.669,11,372.185,4.444,342.49,4.444
	c-30.362,0-60.429,6.839-86.95,19.777c-0.403,0.197-0.801,0.403-1.198,0.608l-0.798,0.409
	c-12.566,6.315-24.282,13.973-34.821,22.759v0.001C217.949,48.641,217.175,49.287,216.415,49.944z M114.937,137.033
	c0.786,5.195,1.511,11.148,2.338,17.931l0.041,0.347c0.354,2.933,0.728,6.003,1.128,9.178c11.676,4.554,23.92,6.248,36.405,5.03
	c0.905-0.088,1.807-0.199,2.704-0.319l-0.009-0.248c-0.064-1.595-0.128-3.189-0.128-4.796c0-5.873,0.397-12,1.181-18.23
	c-2.178,0.461-4.093,0.764-5.949,0.946c-1.833,0.178-3.696,0.268-5.532,0.268C135.553,147.14,124.466,143.651,114.937,137.033z
	 M152.212,142.436c2.184-0.212,4.438-0.608,7.06-1.242c4.258-26.873,16.125-52.594,34.345-74.447
	c-8.871-17.303-27.035-28.455-46.418-28.455c-1.688,0-3.406,0.083-5.097,0.248c-13.874,1.349-26.394,8.022-35.253,18.79
	c-8.859,10.771-12.99,24.342-11.638,38.213c0.302,3.118,0.902,6.264,1.784,9.359c3.321,0.68,6.013,3.566,6.042,3.597
	c3.461,3.751,8.113,10.617,10.71,22.065c0.017,0.017,0.035,0.033,0.052,0.051c0.064,0.061,0.128,0.123,0.197,0.18l0.003,0.001
	C124.762,139.648,138.335,143.779,152.212,142.436z M119.083,169.484c2.611,20.001,6.66,45.654,14.779,69.662
	c4.377-2.975,12.056-4.328,15.304-4.788c8.598-1.213,17.674-1.049,26.365,0.457c-2.828-5.233-5.355-10.611-7.522-16.006
	c-0.084-0.21-0.157-0.424-0.232-0.637c-0.061-0.173-0.122-0.345-0.189-0.516c-1.172-2.989-2.083-5.491-2.863-7.871
	c-1.033-3.143-1.955-6.3-2.741-9.388c-0.104-0.418-0.708-3.06-1.114-4.837l-0.305-1.423c-1.445-6.863-2.396-13.745-2.834-20.471
	c-0.815,0.107-1.63,0.209-2.448,0.289c-4.02,0.39-8.084,0.496-12.061,0.306c-0.447-0.02-0.888-0.054-1.331-0.087l-1.239-0.087
	c-0.412-0.028-0.824-0.054-1.233-0.091c-0.873-0.081-1.743-0.19-2.614-0.3l-1.114-0.132c-1.012-0.141-2.019-0.309-3.023-0.486
	l-0.641-0.107c-1.108-0.204-2.205-0.434-3.298-0.682l-0.302-0.065c-1.16-0.267-2.315-0.56-3.458-0.876l-0.078-0.022
	C122.943,170.785,120.994,170.167,119.083,169.484z M74.759,123.086c3.919-6.016,8.612-11.213,13.973-15.464
	c0.191-0.152,1.787-1.397,3.797-2.202c-0.859-3.142-1.447-6.316-1.755-9.445c-1.465-15.064,3.025-29.792,12.636-41.475
	c9.613-11.686,23.197-18.929,38.258-20.395c15.055-1.45,29.791,3.021,41.481,12.634c5.587,4.598,10.17,10.103,13.631,16.378
	c5.1-5.775,10.678-11.288,16.595-16.405c-14.808-22.324-39.491-35.631-66.155-35.631c-2.57,0-5.181,0.126-7.751,0.377
	c-21.077,2.051-40.115,12.211-53.603,28.61C72.374,56.466,66.077,77.105,68.128,98.181C68.969,106.825,71.2,115.196,74.759,123.086z
	 M73.512,241.26l0.528,1.666c5.079,14.993,24.381,41.835,38.537,40.432c9.509-0.901,15.777-14.637,18.13-39.732
	c-10.887-30.705-14.89-63.685-17.814-87.778c-0.893-7.358-1.735-14.308-2.651-20.021c-2.094-13.114-7.052-20.633-10.843-24.63
	c-1.897-2.006-5.126-2.234-7.339-0.522C44.481,147.488,73.216,240.328,73.512,241.26z M118.415,357.115
	c-5.918-20.71-3.846-34.705-3.072-38.5c0.09-0.429,0.157-0.711,0.183-0.817l0.682-2.64c0.046-0.216,5.532-24.477,24.981-40.69
	l0.252-0.212l3.417,0.483c23.749,3.408,40.837,12.325,50.789,26.503c7.084,10.092,9.172,20.804,9.509,28.921
	c13.944-31.776,15.13-56.047,3.524-72.177c-14.196-19.73-43.691-21.366-58.888-19.216c-10.446,1.475-14.08,4.235-14.649,5.217
	c-2.608,27.924-10.06,42.664-22.15,43.809c-0.482,0.044-0.963,0.067-1.45,0.067c-17.143,0-36.581-28.027-41.774-43.727
	c-31.224-0.6-51.483,5.717-60.231,18.824c-10.454,15.67-2.605,37.761,4.212,53.013c4.659,10.425,6.315,19.151,6.736,25.569
	c1.505-6.472,1.83-14.186,2.147-21.695c0.667-15.863,1.355-32.21,12.795-38.792c5.158-2.965,11.275-4.469,18.179-4.469
	c15.345,0,29.675,7.453,30.275,7.771l3.582,1.884l-3.507,2.019c-6.298,3.62-10.06,8.409-11.502,14.643
	c-2.921,12.615,3.925,31.353,20.352,55.696c14.127,20.936,17.703,33.602,17.959,40.867
	C120.431,389.261,123.225,373.944,118.415,357.115z M134.01,334.891c-0.537-0.338-1.03-0.654-1.517-0.983
	c-0.49-0.322-0.983-0.653-1.479-1.001c-0.847-0.593-1.694-1.217-2.541-1.859l-0.36-0.268c-0.191-0.141-0.383-0.28-0.574-0.431
	c-1.152-0.898-2.3-1.848-3.449-2.837c-0.229-0.197-0.458-0.405-0.69-0.613l-0.453-0.406c-0.806-0.718-1.613-1.452-2.416-2.212
	c-0.438-0.418-0.882-0.846-1.323-1.279c-0.345,3.229-0.621,8.637,0.11,15.655C124.53,339.767,129.931,338.386,134.01,334.891z
	 M160.54,320.944c-0.908-1.316-1.769-2.628-2.599-3.932c-0.171-0.268-0.334-0.535-0.499-0.803l-0.278-0.453
	c-0.545-0.885-1.088-1.765-1.601-2.64l-0.815-1.427c-0.461-0.811-0.914-1.616-1.346-2.413l-0.687-1.285
	c-0.49-0.934-0.893-1.719-1.285-2.499l-0.653-1.32c-0.4-0.821-0.78-1.627-1.149-2.428l-0.508-1.098
	c-0.438-0.973-0.85-1.922-1.247-2.854l-0.218-0.513c-0.47-1.123-0.908-2.219-1.32-3.279l-0.113-0.302
	c-0.354-0.928-0.69-1.832-0.998-2.704l-0.281-0.806c-0.238-0.676-0.467-1.339-0.673-1.975l-0.281-0.859
	c-0.189-0.585-0.365-1.141-0.528-1.68l-0.241-0.801c-0.107-0.358-0.899-3.417-1.363-5.204c-0.769,0.798-1.842,1.91-2.486,2.585
	l-0.255,0.263c-0.429,0.438-0.856,0.876-1.259,1.323c-9.749,10.72-14.492,22.923-16.45,29.244c-0.194,0.624-0.351,1.166-0.479,1.614
	c0.003,0-0.525,2.099-0.775,2.96c9.541,9.858,19.209,16.402,28.781,19.493c5.134,1.656,9.239-0.805,11.368-3.662
	C163.104,329.72,163.2,324.796,160.54,320.944z M164.651,334.779c8.105-3.108,14.629-9.181,18.107-16.938
	c3.176-7.088,3.632-15.158,1.291-22.749c-9.085-7.816-21.764-13.074-37.701-15.635c0.548,2.2,1.558,5.832,3.214,10.418l0.29,0.776
	c0.571,1.552,1.198,3.176,1.912,4.894l0.09,0.209c0.435,1.044,0.891,2.087,1.375,3.16l0.226,0.496
	c0.464,1.011,0.949,2.041,1.465,3.098l0.357,0.714c0.502,1.011,1.018,2.029,1.572,3.068l0.496,0.904
	c0.542,1.004,1.094,2.007,1.685,3.027l0.621,1.036c0.595,1.005,1.189,2.009,1.83,3.025c0.864,1.366,1.738,2.701,2.663,4.045
	C167.58,323.359,167.731,329.657,164.651,334.779z M242.359,315.978c-7.98-2.255-16.204-5.127-24.465-8.544
	c-2.425,9.452-6.309,19.818-11.548,30.829l-0.139,0.31c-1.215,2.744-1.92,3.87-2.602,4.148c-1.082,0.444-2.657-0.16-3.107-1.195
	c-0.278-0.622-0.203-2.057,0.02-4.325l0.046-0.5c0.496-7.033,0.038-20.665-8.586-32.932c-0.679-0.963-1.418-1.925-2.207-2.875
	c0.69,6.459-0.316,12.9-2.947,18.771c-3.495,7.797-9.665,14.106-17.483,17.921c30.881,12.247,53.261,14.483,66.81,14.163
	C236.737,339.49,238.823,327.462,242.359,315.978z M259.868,483.993c-2.387-8.871-11.046-14.571-20.123-13.28l-0.464,0.067
	l-0.258-0.392c-4.337-6.521-12.317-9.541-19.873-7.51c-5.279,1.42-9.602,5.092-11.858,10.079l-0.371,0.824l-0.737-0.525
	c-4.456-3.182-10.04-4.19-15.307-2.775c-7.556,2.032-12.952,8.65-13.428,16.466l-0.029,0.468l-0.435,0.176
	c-8.511,3.434-13.132,12.711-10.75,21.579c2.315,8.604,10.75,14.336,19.592,13.339l0.673-0.075l0.235,1.166
	c0.058,0.306,0.116,0.613,0.197,0.918c4.107,15.265,21.512,23.901,38.809,19.249c17.294-4.653,28.027-20.855,23.923-36.117
	c-0.081-0.297-0.186-0.586-0.287-0.875l-0.386-1.147l0.618-0.271C257.771,501.78,262.18,492.595,259.868,483.993z M285.754,464.452
	c-4.064-2.943-7.98-6.227-11.655-9.78c-10.988-10.621-19.85-23.486-26.348-38.244c-37.811,0.442-53.026,27.121-59.109,50.084
	c0.348-0.122,0.705-0.235,1.076-0.335c5.201-1.392,10.692-0.906,15.531,1.379c3.043-4.406,7.545-7.584,12.746-8.981
	c8.615-2.319,17.756,0.635,23.392,7.519c0.287-0.012,0.571-0.017,0.859-0.017c6.765,0,13.201,3.037,17.538,8.295
	C266.63,469.874,275.355,466.541,285.754,464.452z M444.173,343.788c-0.151-1.975-0.357-4.057-0.635-6.361l-0.186-1.445
	c-0.252-1.913-0.511-3.672-0.806-5.414l-0.006-0.006l-0.125-0.782c-0.769-4.383-1.778-8.81-2.996-13.158
	c-0.525-1.867-1.091-3.725-1.682-5.522l-0.113-0.344c-0.609-1.849-1.172-3.446-1.743-4.96c-2.846,1.482-5.767,2.912-8.699,4.258
	c-4.067,1.868-8.241,3.613-12.404,5.189l-0.029,0.011l-0.807,0.318c-2.651,1.038-5.494,2.054-8.679,3.101
	c-12.386,4.081-25.727,6.908-39.656,8.404c-7.612,0.818-15.232,1.233-22.655,1.233l-0.748-0.001
	c-2.393-0.007-4.896-0.065-7.876-0.181c-1.085-0.044-2.17-0.103-3.252-0.161c-1.859-0.1-3.713-0.225-5.561-0.376l-0.902-0.07
	c-0.569-0.042-1.137-0.086-1.703-0.138c-0.725-0.068-1.445-0.154-2.164-0.239l-2.605-0.292c-1.137-0.12-2.277-0.242-3.405-0.392
	l-1.079-0.155c-3.066-0.428-5.787-0.86-8.319-1.32c-5.81-1.052-11.449-2.332-16.885-3.83l-2.051-0.573
	c-0.798-0.226-1.59-0.468-2.384-0.712l-1.07-0.326c-1.74-0.525-3.455-1.104-5.166-1.681l-0.653-0.219
	c-1.247-0.419-2.474-0.873-3.701-1.329l-1.676-0.622l-0.009-0.003c-4.876-1.787-8.821-3.371-12.421-4.983
	c-0.946-0.425-1.871-0.882-2.796-1.337c-0.516-0.255-1.033-0.509-1.555-0.759l-1.526-0.724c-0.951-0.448-1.9-0.896-2.837-1.365
	c-0.844,2.087-1.587,4.134-2.158,5.729c-0.65,1.817-1.23,3.655-1.798,5.5l-0.22,0.687c-0.113,0.354-0.226,0.708-0.331,1.065
	c-0.49,1.653-0.922,3.323-1.349,4.994l-0.183,0.724c-0.148,0.571-0.293,1.143-0.429,1.72c-0.363,1.543-0.687,3.098-0.998,4.657
	c-0.197,0.986-0.386,1.974-0.56,2.966c-0.255,1.447-0.49,2.898-0.699,4.354c-0.165,1.153-0.31,2.306-0.447,3.464
	c-0.157,1.34-0.31,2.682-0.432,4.029c-0.119,1.337-0.203,2.683-0.281,4.028l-0.049,0.757c-0.058,0.944-0.116,1.89-0.148,2.84
	c-0.058,1.62-0.058,3.245-0.058,4.869l-0.009,1.015c-0.006,0.622-0.015,1.243-0.003,1.867c0.055,2.772,0.174,5.336,0.36,7.836
	c2.396,31.974,15.212,60.697,36.088,80.876c18.06,17.457,39.981,26.684,63.393,26.684c3.684,0,7.426-0.236,11.119-0.703
	C407.502,469.376,449.113,409.85,444.173,343.788z M404.941,474.373c4.522-5.48,11.342-8.56,18.4-8.277
	c5.633-6.884,14.785-9.825,23.392-7.52c5.201,1.4,9.703,4.577,12.746,8.982c4.838-2.283,10.327-2.775,15.531-1.378
	c0.368,0.099,0.728,0.213,1.076,0.335c-4.833-18.22-16.035-40.685-41.965-47.789c-2.988,5.994-6.344,11.671-9.982,16.882
	c-9.277,13.291-20.43,24.063-33.167,32.039C396.206,469.456,400.897,471.713,404.941,474.373z M473.854,470.481
	c-5.282-1.417-10.86-0.408-15.313,2.775l-0.737,0.525l-0.371-0.824c-2.257-4.985-6.579-8.659-11.853-10.079
	c-7.571-2.035-15.542,0.989-19.876,7.51l-0.258,0.392l-0.464-0.067c-0.864-0.123-1.726-0.184-2.576-0.184
	c-8.102,0-15.389,5.439-17.547,13.464c-2.315,8.601,2.094,17.786,10.257,21.364l0.618,0.271l-0.38,1.131
	c-0.104,0.293-0.209,0.586-0.29,0.889c-4.105,15.264,6.628,31.466,23.92,36.119c17.312,4.651,34.708-3.986,38.812-19.249
	c0.081-0.305,0.139-0.612,0.197-0.918l0.235-1.166l0.673,0.075c8.885,1.007,17.277-4.738,19.589-13.339
	c2.384-8.866-2.234-18.144-10.747-21.579l-0.435-0.176l-0.029-0.468C486.803,479.131,481.408,472.513,473.854,470.481z
	 M632.154,379.809c-10.353-19.215-31.137-28.501-47.137-30.786c-13.088-1.871-24.146,0.654-30.336,6.934
	c-8.479,8.601-9.239,25.158-1.697,36.912c2.341,3.639,5.422,6.718,9.164,9.155c2.184,1.426,4.847,1.701,7.298,0.747
	c2.498-0.967,4.316-3.007,4.986-5.597c0.882-3.384-0.525-6.907-3.577-8.975c-1.706-1.153-3.092-2.553-4.122-4.157
	c-3.841-5.986-2.915-14.082-0.415-16.618c1.9-1.929,7.844-3.452,16.386-2.229c11.504,1.643,27.589,8.485,35.061,22.361
	c10.399,19.306-1.99,42.827-9.993,52.568c-13.599,16.553-33.675,19.854-46.957,22.039c-20.279,3.334-36.1-0.445-50.058-3.778
	c-8.885-2.12-22.672-6.276-38.754-14.119c3.498,6.367,6.329,13.606,8.435,21.561c8.92,3.533,17.843,6.374,26.522,8.448
	c14.701,3.51,32.993,7.874,56.51,4.009c14.747-2.426,39.427-6.486,56.927-27.789C635.371,432.252,644.813,403.32,632.154,379.809z"
	/>
<path fill="#EAD788" d="M74.04,242.927c5.079,14.993,24.381,41.835,38.537,40.432c9.509-0.901,15.777-14.637,18.13-39.732
	c-10.887-30.705-14.89-63.685-17.814-87.778c-0.893-7.358-1.735-14.308-2.651-20.021c-2.094-13.114-7.052-20.633-10.843-24.63
	c-1.897-2.006-5.126-2.234-7.339-0.522C44.481,147.488,73.216,240.328,73.512,241.26L74.04,242.927z"/>
<path fill="#FBED22" d="M157.941,317.012c-0.171-0.268-0.334-0.535-0.499-0.803l-0.278-0.453c-0.545-0.885-1.088-1.765-1.601-2.64
	l-0.815-1.427c-0.461-0.811-0.914-1.616-1.346-2.413l-0.687-1.285c-0.49-0.934-0.893-1.719-1.285-2.499l-0.653-1.32
	c-0.4-0.821-0.78-1.627-1.149-2.428l-0.508-1.098c-0.438-0.973-0.85-1.922-1.247-2.854l-0.218-0.513
	c-0.47-1.123-0.908-2.219-1.32-3.279l-0.113-0.302c-0.354-0.928-0.69-1.832-0.998-2.704l-0.281-0.806
	c-0.238-0.676-0.467-1.339-0.673-1.975l-0.281-0.859c-0.189-0.585-0.365-1.141-0.528-1.68l-0.241-0.801
	c-0.107-0.358-0.899-3.417-1.363-5.204c-0.769,0.798-1.842,1.91-2.486,2.585l-0.255,0.263c-0.429,0.438-0.856,0.876-1.259,1.323
	c-9.749,10.72-14.492,22.923-16.45,29.244c-0.194,0.624-0.351,1.166-0.479,1.614c0.003,0-0.525,2.099-0.775,2.96
	c9.541,9.858,19.209,16.402,28.781,19.493c5.134,1.656,9.239-0.805,11.368-3.662c2.802-3.768,2.898-8.692,0.238-12.544
	C159.632,319.629,158.771,318.316,157.941,317.012z"/>
<path fill="#F2CB1D" d="M115.343,318.615c0.09-0.429,0.157-0.711,0.183-0.817l0.682-2.64c0.046-0.216,5.532-24.477,24.981-40.69
	l0.252-0.212l3.417,0.483c23.749,3.408,40.837,12.325,50.789,26.503c7.084,10.092,9.172,20.804,9.509,28.921
	c13.944-31.776,15.13-56.047,3.524-72.177c-14.196-19.73-43.691-21.366-58.888-19.216c-10.446,1.475-14.08,4.235-14.649,5.217
	c-2.608,27.924-10.06,42.664-22.15,43.809c-0.482,0.044-0.963,0.067-1.45,0.067c-17.143,0-36.581-28.027-41.774-43.727
	c-31.224-0.6-51.483,5.717-60.231,18.824c-10.454,15.67-2.605,37.761,4.212,53.013c4.659,10.425,6.315,19.151,6.736,25.569
	c1.505-6.472,1.83-14.186,2.147-21.695c0.667-15.863,1.355-32.21,12.795-38.792c5.158-2.965,11.275-4.469,18.179-4.469
	c15.345,0,29.675,7.453,30.275,7.771l3.582,1.884l-3.507,2.019c-6.298,3.62-10.06,8.409-11.502,14.643
	c-2.921,12.615,3.925,31.353,20.352,55.696c14.127,20.936,17.703,33.602,17.959,40.867c9.665-10.205,12.459-25.522,7.649-42.351
	C112.498,336.405,114.569,322.411,115.343,318.615z"/>
<path fill="#D6A37B" d="M355.284,201.532c-5.905-0.516-11.832-0.673-17.759-0.823c-5.927,0.116-11.854,0.31-17.76,0.799
	c-5.893,0.695-11.791,1.237-17.607,2.479c-11.647,2.187-23.128,5.459-33.988,10.675l0.163,0.876
	c22.832-4.081,46.024-6.088,69.192-5.924c23.167-0.16,46.359,1.846,69.192,5.924l0.163-0.876
	c-10.863-5.201-22.345-8.455-33.991-10.647C367.073,202.781,361.178,202.206,355.284,201.532z"/>
<path fill="#E6BA8F" d="M487.279,486.947l0.029,0.468l0.435,0.176c8.514,3.434,13.132,12.713,10.747,21.579
	c-2.312,8.601-10.704,14.346-19.589,13.339l-0.673-0.075l-0.235,1.166c-0.058,0.306-0.116,0.613-0.197,0.918
	c-4.105,15.264-21.5,23.901-38.812,19.249c-17.291-4.653-28.024-20.855-23.92-36.119c0.081-0.303,0.186-0.596,0.29-0.889l0.38-1.131
	l-0.618-0.271c-8.163-3.578-12.572-12.763-10.257-21.364c2.158-8.025,9.445-13.464,17.547-13.464c0.85,0,1.711,0.061,2.576,0.184
	l0.464,0.067l0.258-0.392c4.334-6.521,12.305-9.545,19.876-7.51c5.274,1.42,9.596,5.094,11.853,10.079l0.371,0.824l0.737-0.525
	c4.453-3.182,10.031-4.192,15.313-2.775C481.408,472.513,486.803,479.131,487.279,486.947z M239.745,470.713l-0.464,0.067
	l-0.258-0.392c-4.337-6.521-12.317-9.541-19.873-7.51c-5.279,1.42-9.602,5.092-11.858,10.079l-0.371,0.824l-0.737-0.525
	c-4.456-3.182-10.04-4.19-15.307-2.775c-7.556,2.032-12.952,8.65-13.428,16.466l-0.029,0.468l-0.435,0.176
	c-8.511,3.434-13.132,12.711-10.75,21.579c2.315,8.604,10.75,14.336,19.592,13.339l0.673-0.075l0.235,1.166
	c0.058,0.306,0.116,0.613,0.197,0.918c4.107,15.265,21.512,23.901,38.809,19.249c17.294-4.653,28.027-20.855,23.923-36.117
	c-0.081-0.297-0.186-0.586-0.287-0.875l-0.386-1.147l0.618-0.271c8.163-3.577,12.572-12.762,10.26-21.364
	C257.481,475.122,248.822,469.422,239.745,470.713z M182.757,317.842c3.176-7.088,3.632-15.158,1.291-22.749
	c-9.085-7.816-21.764-13.074-37.701-15.635c0.548,2.2,1.558,5.832,3.214,10.418l0.29,0.776c0.571,1.552,1.198,3.176,1.912,4.894
	l0.09,0.209c0.435,1.044,0.891,2.087,1.375,3.16l0.226,0.496c0.464,1.011,0.949,2.041,1.465,3.098l0.357,0.714
	c0.502,1.011,1.018,2.029,1.572,3.068l0.496,0.904c0.542,1.004,1.094,2.007,1.685,3.027l0.621,1.036
	c0.595,1.005,1.189,2.009,1.83,3.025c0.864,1.366,1.738,2.701,2.663,4.045c3.437,5.033,3.588,11.33,0.508,16.453
	C172.755,331.671,179.279,325.599,182.757,317.842z M132.493,333.908c0.487,0.329,0.98,0.645,1.517,0.983
	c-4.078,3.495-9.48,4.876-14.692,3.765c-0.731-7.018-0.455-12.427-0.11-15.655c0.441,0.434,0.885,0.862,1.323,1.279
	c0.804,0.76,1.61,1.494,2.416,2.212l0.453,0.406c0.232,0.209,0.461,0.416,0.69,0.613c1.149,0.989,2.297,1.939,3.449,2.837
	c0.191,0.151,0.383,0.29,0.574,0.431l0.36,0.268c0.847,0.643,1.694,1.266,2.541,1.859
	C131.509,333.255,132.002,333.586,132.493,333.908z M263.769,367.908v-0.001c1.973,26.337,12.317,49.79,29.129,66.04
	c15.827,15.299,35.34,22.252,55.634,19.695c44.115-5.588,76.725-54.099,72.684-108.136c-0.789-10.54-2.988-20.7-6.469-30.249
	l-0.807,0.318c-2.651,1.038-5.494,2.054-8.679,3.101c-12.386,4.081-25.727,6.908-39.656,8.404
	c-7.612,0.818-15.232,1.233-22.655,1.233l-0.748-0.001c-2.393-0.007-4.896-0.065-7.876-0.181c-1.085-0.044-2.17-0.103-3.252-0.161
	c-1.859-0.1-3.713-0.225-5.561-0.376l-0.902-0.07c-0.569-0.042-1.137-0.086-1.703-0.138c-0.725-0.068-1.445-0.154-2.164-0.239
	l-2.605-0.292c-1.137-0.12-2.277-0.242-3.405-0.392l-1.079-0.155c-3.066-0.428-5.787-0.86-8.319-1.32
	c-5.81-1.052-11.449-2.332-16.885-3.83l-2.051-0.573c-0.798-0.226-1.59-0.468-2.384-0.712l-1.07-0.326
	c-1.74-0.525-3.455-1.104-5.166-1.681l-0.653-0.219c-1.247-0.419-2.474-0.873-3.701-1.329l-1.676-0.622
	C265.271,332.118,262.408,349.695,263.769,367.908z M539.733,336.423c2.846-0.553,5.54-1.395,8.009-2.503
	c0.18-0.08,0.345-0.168,0.513-0.258l0.925-0.46l0.374,0.4c5.01,5.361,12.862,6.949,19.545,3.952
	c4.183-1.875,7.388-5.266,9.018-9.549c1.633-4.283,1.5-8.946-0.377-13.129c-0.447-0.991-1.001-1.959-1.645-2.878l-0.635-0.902
	l1.073-0.249c1.096-0.254,2.152-0.608,3.141-1.052c8.633-3.871,12.508-14.044,8.638-22.678c-2.924-6.525-9.7-10.583-16.848-10.082
	l-1.001,0.07l0.223-0.976c0.844-3.675,0.479-7.423-1.05-10.837c-3.87-8.628-14.04-12.51-22.675-8.638
	c-2.602,1.165-4.885,2.972-6.608,5.223l-1.053,1.379l-0.27-1.714c-0.241-1.537-0.67-3.001-1.276-4.351
	c-3.867-8.631-14.045-12.505-22.675-8.638c-8.636,3.87-12.511,14.043-8.638,22.678c1.149,2.567,2.857,4.749,5.079,6.485l0.711,0.555
	l-0.685,0.59c-1.561,1.352-3.063,2.917-4.461,4.654c-8.018,9.974-9.883,23.126-4.862,34.328
	C508.506,331.855,523.918,339.499,539.733,336.423z M472.786,244.315c-0.09,26.058-21.071,50.509-56.109,65.4
	c-20.479,8.19-42.194,12.874-64.545,13.918l-0.656,0.03c-2.677,0.117-5.506,0.181-8.522,0.191l-0.737-0.001
	c-0.305-0.001-0.603-0.009-0.905-0.016l-0.745-0.014c-1.877-0.017-3.751-0.058-5.616-0.128c-1.413-0.052-2.817-0.125-4.218-0.204
	c-1.308-0.075-2.608-0.165-3.907-0.264l-0.867-0.065c-0.978-0.073-1.952-0.145-2.924-0.236c-2.521-0.239-4.978-0.516-7.307-0.824
	c-0.421-0.055-0.841-0.116-1.259-0.177l-0.78-0.113c-2.318-0.329-4.627-0.687-6.915-1.095l-1.012-0.178
	c-5.14-0.941-10.425-2.139-15.708-3.559c-0.925-0.252-1.854-0.506-2.776-0.772c-0.484-0.139-0.963-0.286-1.445-0.432l-0.902-0.274
	c-13.045-3.99-24.874-9.277-35.163-15.709c-14.298-8.937-24.743-19.442-31.05-31.222c-1.07-3.539-2.471-6.802-4.099-9.554
	c-1.624-5.105-2.44-10.351-2.422-15.593c0.044-12.636,5.152-25.15,15.185-37.192c0.94-1.13,1.923-2.12,1.932-2.131l0.479-0.48
	l-0.435-0.521c0-0.001-1.242-1.479-1.839-2.238c-8.328-10.553-13.416-23.194-14.718-36.56c-0.792-8.126-0.171-16.241,1.842-24.117
	c2.44-9.536,6.802-18.328,12.966-26.134c11.971-15.155,29.103-24.527,48.24-26.39c2.297-0.225,4.627-0.339,6.927-0.339
	c16.363,0,31.731,5.529,44.448,15.988c4.885,4.02,9.216,8.689,12.868,13.877c0.615,0.875,1.213,1.764,1.787,2.664l0.627,0.983
	l0.627-0.983c0.574-0.901,1.169-1.79,1.79-2.669c1.175-1.664,2.196-3.018,3.223-4.263c11.908-14.475,28.741-23.448,47.398-25.264
	c2.268-0.222,4.572-0.334,6.849-0.334c21.506,0,41.556,9.755,55.013,26.764c6.08,7.687,10.402,16.447,12.85,26.034
	c0.978,3.825,1.61,7.287,1.929,10.582c1.764,18.114-3.513,35.982-14.855,50.311c-0.618,0.779-1.9,2.296-1.903,2.297l-0.424,0.503
	l0.45,0.483c0,0.001,1.558,1.674,1.987,2.186C467.667,218.597,472.83,231.325,472.786,244.315z M264.819,181
	c4.055-0.846,7.345-1.318,10.35-1.485c3.42-0.16,6.747,0.016,9.874,0.531c3.113,0.511,6.225,1.385,9.503,2.673
	c2.802,1.133,5.761,2.645,9.311,4.76l5.082,3.025l-3.052-5.068c-3.945-6.564-11.284-11.319-19.632-12.715
	c-4.073-0.674-8.232-0.526-12.021,0.429c-4.102,0.973-7.797,2.795-10.686,5.268l-4.392,3.765L264.819,181z M371.272,258.082
	l-5.703,8.377c-3.435,5.052-7.968,8.992-13.46,11.706c-5.082,2.428-10.55,3.626-15.769,3.6c-5.262,0.081-10.628-1.14-15.728-3.581
	c-5.488-2.709-10.019-6.653-13.465-11.725l-5.732-8.424l3.086,9.709c2.213,6.962,6.875,13.074,13.126,17.207
	c5.453,3.674,11.925,5.652,18.733,5.722c6.724-0.025,13.196-2.002,18.713-5.712c6.271-4.144,10.936-10.259,13.14-17.219
	L371.272,258.082z M315.446,238.526c2.875-0.426,6.55-0.086,8.717,0.154c2.884,0.319,5.767,1.189,8.583,2.49l0.899,0.415
	c0,0-0.511-3.965-4.084-7.49c-1.256-1.239-2.918-1.848-4.986-2.28c-2.004-0.212-3.676-0.065-5.094,0.74
	c-3.771,2.141-4.841,6.092-4.841,6.092L315.446,238.526z M338.445,241.17c2.817-1.301,5.699-2.171,8.583-2.49
	c2.166-0.239,5.842-0.58,8.717-0.154l0.806,0.12c0,0-1.07-3.951-4.841-6.092c-1.418-0.805-3.089-0.951-5.094-0.74
	c-2.068,0.432-3.73,1.041-4.986,2.28c-3.573,3.525-4.084,7.49-4.084,7.49L338.445,241.17z M406.879,214.663
	c-10.863-5.201-22.345-8.455-33.991-10.647c-5.816-1.235-11.711-1.809-17.605-2.484c-5.905-0.516-11.832-0.673-17.759-0.823
	c-5.927,0.116-11.854,0.31-17.76,0.799c-5.893,0.695-11.791,1.237-17.607,2.479c-11.647,2.187-23.128,5.459-33.988,10.675
	l0.163,0.876c22.832-4.081,46.024-6.088,69.192-5.924c23.167-0.16,46.359,1.846,69.192,5.924L406.879,214.663z M425.817,182.184
	l-4.386-3.765c-2.886-2.473-6.576-4.293-10.666-5.265c-3.814-0.957-7.98-1.104-12.038-0.432
	c-8.348,1.398-15.687,6.151-19.635,12.715l-3.052,5.065l5.082-3.023c3.556-2.116,6.512-3.627,9.303-4.756
	c3.289-1.291,6.399-2.167,9.517-2.677c3.171-0.525,6.48-0.699,9.86-0.531c3.017,0.167,6.306,0.638,10.359,1.485L425.817,182.184z
	 M159.273,141.194c4.258-26.873,16.125-52.594,34.345-74.447c-8.871-17.303-27.035-28.455-46.418-28.455
	c-1.688,0-3.406,0.083-5.097,0.248c-13.874,1.349-26.394,8.022-35.253,18.79c-8.859,10.771-12.99,24.342-11.638,38.213
	c0.302,3.118,0.902,6.264,1.784,9.359c3.321,0.68,6.013,3.566,6.042,3.597c3.461,3.751,8.113,10.617,10.71,22.065
	c0.017,0.017,0.035,0.033,0.052,0.051c0.064,0.061,0.128,0.123,0.197,0.18l0.003,0.001c10.762,8.852,24.334,12.982,38.212,11.639
	C154.396,142.224,156.65,141.828,159.273,141.194z M542.875,142.436c13.88-1.349,26.4-8.023,35.253-18.79
	c8.859-10.769,12.995-24.34,11.641-38.213c-1.349-13.877-8.023-26.397-18.791-35.253c-9.454-7.778-20.885-11.89-33.057-11.89
	c-1.708,0-3.443,0.084-5.152,0.251c-13.88,1.349-26.4,8.022-35.253,18.79c-2.312,2.811-4.377,5.98-6.144,9.429
	c18.22,21.85,30.084,47.577,34.342,74.455C531.419,142.574,537.192,142.986,542.875,142.436z"/>
<path fill="#603917" d="M274.099,454.672c3.675,3.553,7.591,6.837,11.655,9.78c-10.399,2.089-19.125,5.422-25.97,9.921
	c-4.337-5.258-10.773-8.295-17.538-8.295c-0.287,0-0.571,0.006-0.859,0.017c-5.636-6.884-14.776-9.838-23.392-7.519
	c-5.201,1.397-9.703,4.574-12.746,8.981c-4.838-2.286-10.33-2.772-15.531-1.379c-0.371,0.1-0.728,0.213-1.076,0.335
	c6.083-22.964,21.297-49.642,59.109-50.084C254.249,431.186,263.111,444.051,274.099,454.672z M444.173,343.788
	c-0.151-1.975-0.357-4.057-0.635-6.361l-0.186-1.445c-0.252-1.913-0.511-3.672-0.806-5.414l-0.006-0.006l-0.125-0.782
	c-0.769-4.383-1.778-8.81-2.996-13.158c-0.525-1.867-1.091-3.725-1.682-5.522l-0.113-0.344c-0.609-1.849-1.172-3.446-1.743-4.96
	c-2.846,1.482-5.767,2.912-8.699,4.258c-4.067,1.868-8.241,3.613-12.404,5.189l-0.029,0.011c3.48,9.549,5.679,19.71,6.469,30.249
	c4.041,54.037-28.57,102.548-72.684,108.136c-20.294,2.557-39.807-4.396-55.634-19.695c-16.813-16.25-27.157-39.703-29.129-66.04
	v0.001c-1.361-18.213,1.502-35.789,7.981-52.213l-0.009-0.003c-4.876-1.787-8.821-3.371-12.421-4.983
	c-0.946-0.425-1.871-0.882-2.796-1.337c-0.516-0.255-1.033-0.509-1.555-0.759l-1.526-0.724c-0.951-0.448-1.9-0.896-2.837-1.365
	c-0.844,2.087-1.587,4.134-2.158,5.729c-0.65,1.817-1.23,3.655-1.798,5.5l-0.22,0.687c-0.113,0.354-0.226,0.708-0.331,1.065
	c-0.49,1.653-0.922,3.323-1.349,4.994l-0.183,0.724c-0.148,0.571-0.293,1.143-0.429,1.72c-0.363,1.543-0.687,3.098-0.998,4.657
	c-0.197,0.986-0.386,1.974-0.56,2.966c-0.255,1.447-0.49,2.898-0.699,4.354c-0.165,1.153-0.31,2.306-0.447,3.464
	c-0.157,1.34-0.31,2.682-0.432,4.029c-0.119,1.337-0.203,2.683-0.281,4.028l-0.049,0.757c-0.058,0.944-0.116,1.89-0.148,2.84
	c-0.058,1.62-0.058,3.245-0.058,4.869l-0.009,1.015c-0.006,0.622-0.015,1.243-0.003,1.867c0.055,2.772,0.174,5.336,0.36,7.836
	c2.396,31.974,15.212,60.697,36.088,80.876c18.06,17.457,39.981,26.684,63.393,26.684c3.684,0,7.426-0.236,11.119-0.703
	C407.502,469.376,449.113,409.85,444.173,343.788z M423.34,466.095c5.633-6.884,14.785-9.825,23.392-7.52
	c5.201,1.4,9.703,4.577,12.746,8.982c4.838-2.283,10.327-2.775,15.531-1.378c0.368,0.099,0.728,0.213,1.076,0.335
	c-4.833-18.22-16.035-40.685-41.965-47.789c-2.988,5.994-6.344,11.671-9.982,16.882c-9.277,13.291-20.43,24.063-33.167,32.039
	c5.236,1.809,9.926,4.065,13.97,6.725C409.463,468.893,416.283,465.812,423.34,466.095z M632.154,379.809
	c-10.353-19.215-31.137-28.501-47.137-30.786c-13.088-1.871-24.146,0.654-30.336,6.934c-8.479,8.601-9.239,25.158-1.697,36.912
	c2.341,3.639,5.422,6.718,9.164,9.155c2.184,1.426,4.847,1.701,7.298,0.747c2.498-0.967,4.316-3.007,4.986-5.597
	c0.882-3.384-0.525-6.907-3.577-8.975c-1.706-1.153-3.092-2.553-4.122-4.157c-3.841-5.986-2.915-14.082-0.415-16.618
	c1.9-1.929,7.844-3.452,16.386-2.229c11.504,1.643,27.589,8.485,35.061,22.361c10.399,19.306-1.99,42.827-9.993,52.568
	c-13.599,16.553-33.675,19.854-46.957,22.039c-20.279,3.334-36.1-0.445-50.058-3.778c-8.885-2.12-22.672-6.276-38.754-14.119
	c3.498,6.367,6.329,13.606,8.435,21.561c8.92,3.533,17.843,6.374,26.522,8.448c14.701,3.51,32.993,7.874,56.51,4.009
	c14.747-2.426,39.427-6.486,56.927-27.789C635.371,432.252,644.813,403.32,632.154,379.809z M217.894,307.434
	c-2.425,9.452-6.309,19.818-11.548,30.829l-0.139,0.31c-1.215,2.744-1.92,3.87-2.602,4.148c-1.082,0.444-2.657-0.16-3.107-1.195
	c-0.278-0.622-0.203-2.057,0.02-4.325l0.046-0.5c0.496-7.033,0.038-20.665-8.586-32.932c-0.679-0.963-1.418-1.925-2.207-2.875
	c0.69,6.459-0.316,12.9-2.947,18.771c-3.495,7.797-9.665,14.106-17.483,17.921c30.881,12.247,53.261,14.483,66.81,14.163
	c0.586-12.259,2.672-24.287,6.208-35.771C234.379,313.723,226.155,310.851,217.894,307.434z M488.216,63.129
	c1.694-3.06,3.661-5.958,5.857-8.628c9.613-11.687,23.2-18.929,38.261-20.395c15.078-1.463,29.794,3.023,41.478,12.634
	s18.927,23.2,20.395,38.261c1.465,15.064-3.025,29.792-12.636,41.475c-9.613,11.687-23.2,18.929-38.261,20.395
	c-5.584,0.54-11.168,0.267-16.923-0.922c0.783,6.228,1.181,12.349,1.181,18.207c0,1.659-0.067,3.304-0.133,4.949l-0.006,0.115
	c5.999,0.782,12.079,0.885,18.083,0.3c21.112-2.054,40.158-12.206,53.632-28.586c13.477-16.383,19.763-37.03,17.706-58.137
	c-2.051-21.107-12.203-40.154-28.584-53.631c-14.388-11.834-31.781-18.089-50.299-18.089c-2.596,0-5.23,0.128-7.835,0.381
	c-21.112,2.054-40.158,12.206-53.632,28.586c-1.694,2.06-3.342,4.295-4.905,6.656C477.523,51.828,483.107,57.349,488.216,63.129z
	 M448.968,351.752c13.509,0.319,35.871-1.946,66.674-14.166c-7.818-3.814-13.987-10.124-17.483-17.922
	c-3.806-8.493-4.197-17.973-1.154-26.913c-10.617,6.096-30.171,16.214-53.156,22.872c2.454,8.933,4.055,18.241,4.757,27.68
	C448.8,345.878,448.916,348.58,448.968,351.752z M117.316,155.311c0.354,2.933,0.728,6.003,1.128,9.178
	c11.676,4.554,23.92,6.248,36.405,5.03c0.905-0.088,1.807-0.199,2.704-0.319l-0.009-0.248c-0.064-1.595-0.128-3.189-0.128-4.796
	c0-5.873,0.397-12,1.181-18.23c-2.178,0.461-4.093,0.764-5.949,0.946c-1.833,0.178-3.696,0.268-5.532,0.268
	c-11.562,0-22.649-3.488-32.178-10.106c0.786,5.195,1.511,11.148,2.338,17.931L117.316,155.311z M198.566,67.801
	c-0.693,0.806-1.366,1.626-2.039,2.444c-17.277,20.97-28.575,45.439-32.747,70.852c-0.125,0.763-0.232,1.532-0.336,2.3l-0.122,0.889
	c-0.963,6.805-1.45,13.489-1.45,19.869c0,1.334,0.052,2.659,0.102,3.981l0.046,1.201c0.015,0.412,0.023,0.828,0.032,1.244
	c0.009,0.58,0.02,1.162,0.055,1.738c0.47,8.241,1.723,16.65,3.727,24.996c3.084,12.847,8.003,25.374,14.623,37.228
	c0.18,0.325,0.374,0.641,0.571,0.957c0.11,0.183,0.223,0.365,0.334,0.548c11.026,2.785,20.244,7.771,26.835,14.497
	c-0.31-2.397-0.464-4.791-0.455-7.14c0.046-13.942,5.648-27.733,16.204-39.919c-8.821-11.219-14.205-24.606-15.583-38.753
	c-0.641-6.579-0.397-13.239,0.728-19.798c0.38-2.235,0.85-4.409,1.395-6.463c2.57-9.706,7.029-18.69,13.251-26.7
	c1.387-1.787,2.849-3.506,4.34-5.107c12.43-13.355,29.24-21.68,47.337-23.441c19.832-1.938,39.236,3.967,54.644,16.643
	c4.664,3.838,8.847,8.224,12.45,13.043c0.777-1.05,1.488-1.962,2.196-2.824c12.665-15.394,30.565-24.936,50.404-26.868
	c23.284-2.265,45.815,6.277,61.835,23.457c1.503,1.611,2.956,3.318,4.319,5.075c6.237,8.006,10.698,17.02,13.259,26.79
	c0.528,2.023,0.989,4.184,1.369,6.422c0.339,2.01,0.571,3.696,0.731,5.305c1.871,19.249-3.707,38.193-15.722,53.415
	c10.742,12.366,16.392,26.408,16.343,40.648c-0.049,14.344-5.836,28.249-16.824,40.634c18.254-13.98,33.399-31.273,44.1-50.435
	c5.784-10.353,10.28-21.225,13.367-32.316l0.107-0.409c0.409-1.488,0.803-2.983,1.163-4.489c1.993-8.295,3.243-16.687,3.719-24.945
	c0.035-0.582,0.046-1.169,0.055-1.755c0.009-0.419,0.017-0.838,0.032-1.256l0.044-1.102c0.052-1.365,0.107-2.728,0.107-4.103
	c0-6.441-0.473-12.929-1.445-19.832l-0.104-0.766c-0.113-0.818-0.223-1.637-0.36-2.451c-4.177-25.435-15.484-49.918-32.7-70.803
	l-0.241-0.294c-0.609-0.738-1.218-1.476-1.842-2.205c-5.398-6.286-11.417-12.305-17.886-17.888c-0.754-0.65-1.52-1.289-2.286-1.928
	c-11.052-9.211-23.325-17.151-36.48-23.599l-0.406-0.2c-0.534-0.264-1.07-0.528-1.613-0.786C401.669,11,372.185,4.444,342.49,4.444
	c-30.362,0-60.429,6.839-86.95,19.777c-0.403,0.197-0.801,0.403-1.198,0.608l-0.798,0.409
	c-12.566,6.315-24.282,13.973-34.821,22.759v0.001c-0.775,0.643-1.549,1.288-2.309,1.945
	C209.946,55.529,203.941,61.537,198.566,67.801z M88.732,107.622c0.191-0.152,1.787-1.397,3.797-2.202
	c-0.859-3.142-1.447-6.316-1.755-9.445c-1.465-15.064,3.025-29.792,12.636-41.475c9.613-11.686,23.197-18.929,38.258-20.395
	c15.055-1.45,29.791,3.021,41.481,12.634c5.587,4.598,10.17,10.103,13.631,16.378c5.1-5.775,10.678-11.288,16.595-16.405
	c-14.808-22.324-39.491-35.631-66.155-35.631c-2.57,0-5.181,0.126-7.751,0.377c-21.077,2.051-40.115,12.211-53.603,28.61
	C72.374,56.466,66.077,77.105,68.128,98.181c0.841,8.644,3.072,17.016,6.631,24.906C78.678,117.07,83.371,111.874,88.732,107.622z"
	/>
<g>
</g>
<g>
</g>
<g>
</g>
<g>
</g>
<g>
</g>
</svg>
